# xmcd
#
# Track frame offsets: 
#        150
#        11940
#        24565
#        37552
#        49380
#        74070
#        88150
#        106800
#        121195
#        141087
#        158755
#        172412
#        189605
#        211090
#        241467
#
# Disc length: 3423 seconds
#
# Revision: 0
# Processed by: cddbd v1.5.1PL0 Copyright (c) Steve Scherf et al.
# Submitted via: ExactAudioCopy v0.95b1
#
DISCID=d30d5d0f
DTITLE=Screams of Chaos - Genetic War
DYEAR=2003
DGENRE=Metal
TTITLE0=Warcrime
TTITLE1=Genetic War
TTITLE2=Infanticide - The Scourge of Impurity
TTITLE3=Whar D'Aar
TTITLE4=A Conquering Force
TTITLE5=Ancient Future
TTITLE6=Submission Before Death
TTITLE7=Universal Chaos
TTITLE8=Internal Disease
TTITLE9=Reality
TTITLE10=Insane
TTITLE11=This Deadly Horror
TTITLE12=Seventh Seal
TTITLE13=Rememberance
TTITLE14=In the Name of God
EXTD=
EXTT0=
EXTT1=
EXTT2=
EXTT3=
EXTT4=
EXTT5=
EXTT6=
EXTT7=
EXTT8=
EXTT9=
EXTT10=
EXTT11=
EXTT12=
EXTT13=
EXTT14=
PLAYORDER=
